<?xml version="1.0" encoding="utf-8"?>
<!-- Generator: Adobe Illustrator 18.1.1, SVG Export Plug-In . SVG Version: 6.00 Build 0)  -->
<svg version="1.1" xmlns="http://www.w3.org/2000/svg" xmlns:xlink="http://www.w3.org/1999/xlink" x="0px" y="0px"
	 viewBox="0 0 66 29" enable-background="new 0 0 66 29" xml:space="preserve">
<g id="editable">
</g>
<g id="Farben">
	<polygon fill="#C9D200" points="0,0 0,29 54.9,29 66,14.5 54.9,0 	"/>
</g>
<g id="Text">
	<path fill="#FFFFFF" d="M44.7,17.6h-4.6v4.9h-4.8v-4.9h-4.5V13h4.5V8.2h4.8V13h4.6V17.6z"/>
	<path fill="#FFFFFF" d="M11.8,26.3l5.4-23.1h7.5l5.3,23.1H24l-0.7-3.8h-4.9l-0.7,3.8H11.8z M19.2,17.8h3.3l-1-5.9
		c-0.3-1.7-0.5-3-0.5-4h-0.1c-0.1,1-0.3,2.3-0.6,4L19.2,17.8z"/>
</g>
</svg>
