<?xml version="1.0" encoding="UTF-8" standalone="no"?>
<!-- Created with Inkscape (http://www.inkscape.org/) -->
<svg id="svg3128" xmlns:rdf="http://www.w3.org/1999/02/22-rdf-syntax-ns#" xmlns="http://www.w3.org/2000/svg" height="44" width="80" version="1.1" xmlns:cc="http://creativecommons.org/ns#" xmlns:dc="http://purl.org/dc/elements/1.1/">
 <metadata id="metadata3134">
  <rdf:RDF>
   <cc:Work rdf:about="">
    <dc:format>image/svg+xml</dc:format>
    <dc:type rdf:resource="http://purl.org/dc/dcmitype/StillImage"/>
    <dc:title/>
   </cc:Work>
  </rdf:RDF>
 </metadata>
 <g id="g3952" stroke-linejoin="miter" transform="translate(-0.74712649,-0.22988506)" stroke="#FFF" stroke-miterlimit="4" stroke-dasharray="none" stroke-width="3.2">
  <g id="g3154" stroke-linecap="butt" fill="none">
   <path id="path3142" d="m52.414,30.092-20.46-0.34483-2.9885-20.517,26.437,0-0.22988,5.3448-2.7586,9.6552l-21.38-0.23" stroke-width="3.20000005"/>
   <path id="path3144" d="m20.92,5.6092,4.8276,0.22989,3.3333,3.5632" stroke-width="3.2"/>
   <path id="path3146" d="m29.54,16.471,24.31-0.05747" stroke-width="3.20000005"/>
   <path id="path3148" d="M35.632,9.2874,36.667,24.287" stroke-width="3.20000005"/>
   <path id="path3150" d="M42.414,9.1724,41.839,24" stroke-width="3.20000005"/>
   <path id="path3152" d="M48.966,9.3448,47.931,23.943" stroke-width="3.20000005"/>
  </g>
  <path id="path3932" opacity="0.98000003999999996" d="m35.69,35.034c0,0.60307-0.48888,1.092-1.092,1.092-0.60307,0-1.092-0.48888-1.092-1.092,0-0.60307,0.48888-1.092,1.092-1.092,0.60307,0,1.092,0.48888,1.092,1.092z" fill-rule="nonzero" transform="translate(0.8045977,0.51724138)" stroke-linecap="round" fill="#000"/>
  <path id="path3932-4" opacity="0.98000003999999996" d="m35.69,35.034c0,0.60307-0.48888,1.092-1.092,1.092-0.60307,0-1.092-0.48888-1.092-1.092,0-0.60307,0.48888-1.092,1.092-1.092,0.60307,0,1.092,0.48888,1.092,1.092z" fill-rule="nonzero" transform="translate(13.390804,0.80459939)" stroke-linecap="round" fill="#000"/>
 </g>
</svg>
