<svg xmlns="http://www.w3.org/2000/svg" viewBox="11.4 11.1 283.7 37.7">
  <g fill="#DF0000">
    <path d="M238.4 36.2c-.9 3-3.6 5.8-6.4 6.5-2.1.3-3.6.1-4.7-.6a5.8 5.8 0 0 1-2.1-3.4l-.1-1.3c0-2.7 1.4-5.3 4.1-7.4a6.9 6.9 0 0 1 5.4-1.1 5 5 0 0 1 3.3 2.5c.5.9.7 2 .7 3 0 .7 0 1.3-.2 1.8m-105.3 0c-.8 3-3.4 5.8-6.1 6.4-2 .4-3.8.2-4.9-.5a6.4 6.4 0 0 1-2.1-3.4l-.1-1.3c0-2.7 1.4-5.3 4.1-7.4a6.9 6.9 0 0 1 5.4-1.1 5 5 0 0 1 3.3 2.5 6.3 6.3 0 0 1 .4 4.8m112.1-12l-.2-.5c-.1-.2-.3-.2-.6-.2h-3.7c-.3 0-.6.2-.7.6l-.3 1.4a8.2 8.2 0 0 0-2.9-1.7l-.4-.2h-.1c-4.1-.9-8.2.3-11.5 3.5a17.3 17.3 0 0 0-3.8 5.3l3.7-20.3-.1-.5a.8.8 0 0 0-.4-.2h-5l-.4.2s-15 20.1-17.4 22.8c.9-3.3 4-22.3 4-22.3V12l-.1-.4a.8.8 0 0 0-.4-.2h-5.3l-.4.2L174 41.2c-.4-4.3-2.4-9-2.4-9-3.3-6.9-10.6-9.2-14.9-5.5l-.7.3c3.3-4.6 10.8-4.2 15.7 1.5 0 0 2.2 2.7 3.8 6.8.4-1.4.7-2.9.8-4.4-2.6-3.6-5.6-5.7-5.6-5.7-6.2-4.2-13.5-2.7-15.5 2.5l-.5.9c.6-5.6 7.3-9.1 14.3-6.7 0 0 3.4 1.3 6.9 4.1l-.2-.7c-.4-1.5-.9-2.9-1.6-4.2-4-1.8-7.6-2.1-7.6-2.1-7.6-.5-13.3 4.8-12.1 10.6v.8c-2.6-5.2 1.5-11.9 9-13.3 0 0 3.5-.6 7.8 0a18.5 18.5 0 0 0-3.7-3.1c-4.3.5-7.5 2-7.5 2-6.9 3.4-9.1 11-5.3 15.3l.5.7c-4.8-3.2-4.5-11.1 1.2-16.2 0 0 2.7-2.3 6.7-3.9a18 18 0 0 0-5.1-.8 26.1 26.1 0 0 0-5.3 5.4c-4.3 6.5-2.5 14.2 3.1 16h.1l.5.3c-5.7-.3-9.4-7.3-6.9-14.6 0 0 1.2-3.2 3.7-6.5-1.5.4-2.8.9-4.1 1.7-1.6 4-2 7.4-2 7.4-.5 7.7 4.7 13.4 10.3 12.3h.3l.6-.1c-5.1 2.6-11.6-1.6-13.1-9.2 0 0-.6-3.4 0-7.7a18.8 18.8 0 0 0-3.2 4.1c.5 4.2 2 7.3 2 7.3 3.4 7 10.9 9.3 15.2 5.3l.1-.1.5-.4c-3.1 4.9-10.9 4.7-15.9-1.2 0 0-2.5-3.3-3.8-7.1 0-.1-.1-.4-.3-.5-.2-.2-.4-.2-.6-.2h-3.8c-.3 0-.6.2-.8.6 0 0-.2.4-.3 1.3-.8-.8-1.8-1.2-2.7-1.6l-.5-.2c-4.1-1-8.2.3-11.5 3.5a15 15 0 0 0-4.2 6.4l-.1.2 1.7-9.3c0-.2 0-.4-.2-.6-.1-.2-.3-.3-.6-.3H112c-.4 0-.7.3-.7.6l-4.1 22.9c0 .2 0 .4.2.6.1.2.3.2.6.2h4.2c.4 0 .7-.1.7-.5l1.7-9.3c0 .1.1 2 .3 2.9a9.5 9.5 0 0 0 7 7.4c2.9.5 5.9-.2 9-2.1l-.2.8v.1l.1.4c.1.2.4.2.6.2h3.7c.4 0 .7-.1.7-.5l3.3-18c2.5 3 5.7 5.5 5.7 5.5 6.2 4.2 13.5 2.6 15.5-2.6l.5-.8c-.6 5.6-7.3 9.1-14.3 6.6 0 0-3.1-1.2-6.4-3.8l.1.4c.4 1.5 1 3 1.7 4.4 3.8 1.6 7.2 1.9 7.2 1.9 7.6.5 13.2-4.8 12.1-10.4v-.6-.2c2.4 5.2-1.7 11.7-9.1 13.2 0 0-3.3.6-7.4 0 1 1.1 2.1 2 3.3 2.8 4.3-.5 7.5-2 7.5-2 6.7-3.3 9-10.6 5.5-15l-.5-.9c4.6 3.3 4.3 11-1.4 16 0 0-2.8 2.3-6.9 4 1.6.5 3.3.9 5 1 3.5-2.7 5.6-5.7 5.6-5.7 4.3-6.5 2.5-14.2-3-16l-.7-.4c5.8.3 9.4 7.3 6.9 14.6 0 0-1.2 3.5-4 7l.7-.2c1.4-.4 2.7-.9 4-1.5 1.7-4.1 2-7.7 2-7.7.5-7.6-4.5-13.2-10-12.4l-.7-.1h-.2c5.1-2.2 11.4 1.9 12.8 9.3 0 0 .9 3.5.2 7.7a8 8 0 0 1-.9 2.4l-.5.9v.5c.1.2.3.3.5.3h5.9l.4-.2s19.5-21.3 21.7-24c-.9 4.5-2.6 15.4-4.2 23.5v.1l.1.3.4.2h4.6l.4-.2s15.7-21.2 18-24c-1 4.5-2.6 15.5-4.2 23.5v.1l.1.3.4.2h4.6c.2 0 .5-.2.5-.4l1.7-9.9v.6c0 .9-.3 1.9-.2 2.8a9.5 9.5 0 0 0 7 7.4c2.9.5 5.9-.2 9-2.1l-.2.8v.1l.2.5c.1.2.3.2.6.2h3.7c.4 0 .7-.1.7-.5l3.4-18.1.7-4.2zM271.7 45.7l-6.8-11.3 7.7-9.4-.5 2.8c0 .2 0 .4.2.6.1.2.3.3.6.3h2c-.3 1.2-2.6 13.1-3.2 17m14.4-22c-.1-.2-.3-.3-.6-.3h-4.2l1.2-6.3V17l-.2-.5c-.1-.2-.3-.3-.6-.3h-4.2c-.4 0-.7.3-.7.6l-1.2 6.6h-2.3c-.3 0-.5.1-.6.3-.1-.2-.3-.3-.6-.3H267.3l-.5.2s-3.4 4.3-5.4 6.5l2.4-13.1v-.1l-.2-.5a.5.5 0 0 0-.5-.3H259c-.4 0-.7.3-.7.6l-1.2 6.6c-.1-.2-.4-.3-.6-.3a11 11 0 0 0-5 1.7l.1-.5c0-.2 0-.4-.2-.6-.1-.2-.3-.2-.6-.2H247c-.3 0-.6.2-.7.6l-.1.6-4 22.3c0 .2 0 .4.2.6.1.2.4.2.6.2H246.6c.3 0 .6-.2.7-.6l2.8-13.8c.9-3.5 3.2-4.5 5.2-4.8l.6-.1-3.1 18.5c0 .2 0 .4.2.6.1.2.3.3.6.3h4c.3 0 .6-.2.7-.5l1.8-9.5 5.9 9.7c.1.2.4.3.6.3h4.5l.2-.1.3.1h4.7c.3 0 .6-.2.7-.6l3.4-18.5h4.5c.4 0 .7-.3.7-.6l.6-3.7v-.1c.1-.3.1-.5-.1-.6M103.6 34.6l-.2 1.6c-.8 3-3.5 5.8-6.2 6.5-2.1.4-3.7.1-4.8-.6a5.4 5.4 0 0 1-2.1-3.4l-.1-1.3c0-2.7 1.5-5.4 4.2-7.4a6.9 6.9 0 0 1 5.4-1.1c1 .2 2.3.9 3.2 2.5.4.9.6 2 .6 3.2m-34.7-1.9a7.6 7.6 0 0 1 5.6-3.8c2.2-.2 3.2.4 4.2 1.2.9.9 1.3 1.7 1.4 2.6H68.9m42.6-16.1c-.1-.2-.3-.3-.6-.3h-3.7c-.3 0-.6.2-.7.6l-1.7 8.5c-.8-.8-1.8-1.2-2.7-1.6l-.4-.2h-.1c-4.1-.9-8.2.3-11.5 3.5a15 15 0 0 0-4.2 6.4c-.1-2-.6-3.9-1.3-5.4V28c-2-3.3-5.2-4.9-9.5-4.7H75c-4.7.6-9.4 3.8-11.7 8.3l-.1.2L66.6 12l-.1-.5a.8.8 0 0 0-.4-.2h-4.9l-.4.2s-15.2 20-17.5 22.7C44 30.9 47.2 12 47.2 12v-.1l-.1-.4a.8.8 0 0 0-.4-.2H42l-.4.2-30.1 35.2c-.1.2-.2.4-.1.6.1.2.3.4.5.4h6l.4-.2s19.1-21.9 21.3-24.7c-.8 4.5-2.6 16.1-4.3 24.2v.1l.1.3.4.2h4.6l.4-.2S56.7 25.5 59 22.7c-1 4.5-2.5 16.2-4.4 24.2v.1l.1.3.4.2h4.5c.2 0 .5-.2.5-.4l1.7-9.3c0 2 .4 4 1.2 5.5 1.7 3 4.7 4.7 8.2 4.9 5.1 0 10-3.1 12.2-7.8v-.7c-.1-.2-.4-.3-.6-.3H79l-.5.2c-1.8 2.1-3.9 3.2-6.1 3.2a5 5 0 0 1-5-3.3l-.1-.3-.2-1V38h17.3l.5-.2.2 2.8a9.5 9.5 0 0 0 7 7.4c2.9.5 5.9-.2 9-2.1l-.2.8v.1l.2.5c.1.2.3.2.6.2h3.7c.3 0 .6-.1.7-.5l5.5-30-.1-.4"/>
    <path d="M112.6 22.8h4.1c.3 0 .6-.4.7-.7l.9-4.9c0-.2 0-.4-.2-.6-.1-.2-.3-.3-.6-.3h-4.2c-.3 0-.6.3-.7.6l-.9 4.9c0 .2 0 .5.2.7l.7.3M287.2 16.4h1.1c.4 0 .9-.1.9-.7 0-.3-.2-.6-.8-.6h-1.2v1.3zm0 2.8h-1v-4.9h2.3c.3 0 1.8 0 1.8 1.5 0 .9-.7 1.2-.9 1.3l.9 2.1h-1.1l-.8-2h-1.2v2zm.9 1.3c2 0 3.7-1.7 3.7-3.8 0-2.1-1.6-3.8-3.7-3.8-2 0-3.7 1.7-3.7 3.8 0 2.1 1.6 3.8 3.7 3.8m0-8.4c2.5 0 4.5 2 4.5 4.6 0 2.5-2 4.6-4.5 4.6a4.6 4.6 0 0 1-4.5-4.6c0-2.5 2-4.6 4.5-4.6"/>
  </g>
</svg>